<!-- Generated by IcoMoon.io -->
<svg version="1.1" xmlns="http://www.w3.org/2000/svg" width="32" height="32" viewBox="0 0 32 32">
<title>undo</title>
<path d="M5.3,11.9c0.1-0.2,0.2-0.3,0.3-0.4c0.2-0.2,0.6-0.2,0.9-0.1C7,11.6,7.2,12.1,7,12.6c-1.2,3.1-0.7,6.5,1.3,9.2
	c3,4.1,8.7,5,12.9,2.4c2.8-1.8,4.4-4.8,4.4-8.1c0-5.1-4-9.3-9-9.6c-0.1,0-0.2,0.2-0.1,0.3l1.3,0.9c0.4,0.3,0.5,0.8,0.3,1.2
	C18,9,17.7,9.2,17.4,9.2c-0.2,0-0.3,0-0.5-0.2l-4.2-2.8c-0.3-0.2-0.4-0.4-0.4-0.7c0-0.3,0.2-0.6,0.4-0.7v0l4.2-2.8
	c0.4-0.3,1-0.2,1.3,0.3c0.2,0.4,0.1,1-0.3,1.2l-1.4,0.9c-0.1,0.1-0.1,0.2,0.1,0.3c6,0.3,10.8,5.3,10.8,11.4c0,3.8-1.9,7.4-5.1,9.5
	l0,0c0,0-0.1,0-0.1,0.1c0,0-0.1,0.1-0.1,0.1c0,0-0.1,0-0.1,0c-5,3.1-11.6,1.9-15.2-2.9C4.5,19.7,3.9,15.6,5.3,11.9z"></path>
</svg>
